<?xml version="1.0" standalone="no"?>
<!DOCTYPE svg PUBLIC "-//W3C//DTD SVG 20010904//EN"
 "http://www.w3.org/TR/2001/REC-SVG-20010904/DTD/svg10.dtd">
<svg version="1.0" xmlns="http://www.w3.org/2000/svg"
 width="600.000000pt" height="375.000000pt" viewBox="0 0 600.000000 375.000000"
 preserveAspectRatio="xMidYMid meet">

<g transform="translate(0.000000,375.000000) scale(0.100000,-0.100000)"
fill="#000000" stroke="none">
<path d="M0 1875 l0 -1875 3000 0 3000 0 0 450 c0 353 -3 450 -12 450 -7 0
-22 8 -33 16 -19 15 -19 16 11 10 l31 -7 2 61 2 60 -107 0 c-59 0 -104 3 -101
7 7 7 105 14 170 13 l37 0 0 80 c0 57 -4 80 -12 80 -10 0 -9 3 1 9 14 9 12 68
-4 105 -6 14 -5 17 3 12 9 -5 12 293 12 1199 l0 1205 -3000 0 -3000 0 0 -1875z
m2155 1470 c74 -38 132 -72 129 -77 -3 -4 -28 6 -57 23 -118 69 -196 104 -257
116 l-65 13 58 -4 c48 -2 80 -14 192 -71z m265 -23 c0 -12 -6 -10 -25 8 -14
13 -25 27 -25 32 0 5 11 1 25 -8 14 -9 25 -23 25 -32z m-95 -32 c-3 -5 -12
-10 -18 -10 -7 0 -6 4 3 10 19 12 23 12 15 0z m-135 -98 c-7 -3 -19 3 -28 13
-16 15 -15 16 12 4 15 -7 23 -15 16 -17z m330 -37 c32 -18 40 -18 40 0 0 8 4
15 8 15 14 0 32 -23 32 -42 0 -20 21 -23 52 -7 11 6 22 8 25 6 3 -3 -14 -15
-37 -27 -42 -21 -42 -21 -64 -2 -11 11 -40 29 -63 41 -24 12 -43 24 -43 26 0
9 25 4 50 -10z m-380 -16 c0 -6 9 -8 20 -4 14 5 20 2 20 -9 0 -21 -19 -20 -42
0 -14 14 -20 14 -33 4 -24 -20 -18 -49 13 -62 15 -7 28 -13 30 -14 1 -1 -13
-45 -33 -98 -20 -53 -35 -101 -33 -107 2 -6 17 7 32 30 16 23 32 41 35 41 15
0 111 104 111 119 0 7 9 7 26 0 31 -11 68 -3 61 15 -8 20 17 44 43 41 14 -2
48 -15 76 -29 29 -14 58 -26 66 -26 25 0 28 -11 13 -47 -32 -76 -12 -84 40
-15 27 34 42 46 58 44 18 -3 19 -2 9 11 -10 12 -9 16 4 21 8 3 40 22 70 42 30
20 58 34 61 30 4 -3 1 -6 -5 -6 -6 0 -16 -9 -22 -20 -7 -14 -7 -20 0 -20 5 0
10 7 10 15 0 18 17 20 22 3 3 -7 -5 -20 -16 -29 -12 -10 -18 -21 -14 -25 4 -4
14 -2 21 5 11 8 20 7 38 -8 22 -17 43 -19 168 -20 79 -1 151 -6 160 -11 10 -5
45 -18 80 -30 51 -18 67 -20 93 -11 21 8 35 8 42 1 5 -5 18 -10 28 -10 12 0
18 -6 16 -17 -2 -14 4 -18 27 -18 20 0 30 -5 30 -15 0 -11 -9 -14 -32 -12 -19
2 -33 -1 -33 -7 0 -6 14 -11 30 -11 18 0 33 -6 36 -15 4 -8 10 -15 16 -15 5 0
16 7 24 15 9 8 32 15 52 15 25 0 32 -3 23 -9 -8 -5 -9 -11 -3 -15 6 -3 13 -2
17 4 3 5 15 10 26 10 11 0 17 5 14 10 -3 6 1 10 9 10 9 0 16 -4 16 -10 0 -5
17 -9 38 -8 48 2 62 -7 62 -36 0 -20 6 -25 45 -31 25 -3 43 -10 40 -16 -4 -5
0 -9 8 -9 7 0 22 -8 33 -18 45 -42 69 -52 124 -52 62 0 74 -6 84 -36 5 -15 1
-24 -16 -32 -22 -11 -22 -11 3 -6 19 4 26 1 26 -11 0 -9 -6 -14 -14 -11 -7 3
-13 1 -13 -4 0 -5 -7 -7 -15 -4 -18 7 -75 -17 -75 -32 0 -29 -86 -33 -95 -5
-5 16 -14 19 -59 16 -35 -2 -85 6 -152 24 -54 15 -108 25 -119 22 -17 -5 -18
-6 -2 -9 24 -5 21 -19 -5 -28 -14 -4 -25 -1 -33 10 -17 23 -25 21 -81 -19 -44
-32 -46 -35 -19 -29 17 4 32 11 33 16 2 4 9 8 15 8 7 -1 1 -10 -13 -22 -27
-22 -28 -22 39 -3 16 5 21 4 17 -4 -11 -16 3 -51 20 -51 8 0 14 9 14 20 0 11
4 20 10 20 5 0 19 8 30 18 20 16 20 17 2 22 -18 5 -18 6 1 25 11 11 17 14 13
8 -5 -9 2 -13 22 -13 39 0 94 -19 110 -38 7 -10 12 -11 12 -4 0 7 7 12 15 12
8 0 15 -5 15 -11 0 -5 -6 -7 -12 -3 -7 3 1 -5 17 -19 17 -14 42 -29 57 -32 15
-4 32 -12 37 -19 12 -14 -16 -11 -114 14 -22 5 -51 10 -64 10 -24 0 -23 -1 9
-25 19 -14 30 -25 25 -25 -5 0 0 -7 12 -15 14 -10 32 -13 47 -9 22 5 152 -27
531 -131 50 -13 117 -30 150 -36 33 -7 52 -14 43 -17 -10 -2 -18 -6 -18 -8 0
-10 29 -34 40 -34 9 0 10 -37 5 -147 -5 -82 -8 -153 -8 -159 0 -8 -9 -9 -31
-2 -29 10 -156 11 -165 2 -2 -2 25 -4 61 -4 45 0 69 -5 78 -14 12 -15 16 -258
4 -277 -8 -14 -44 -11 -45 4 0 9 -2 9 -6 0 -2 -7 -14 -13 -25 -13 -16 0 -19 6
-16 33 2 21 10 34 23 39 17 5 15 6 -7 7 -49 2 -30 20 25 24 l52 3 -59 2 c-54
2 -58 0 -53 -18 6 -22 -8 -28 -16 -7 -3 7 -6 5 -6 -5 -1 -11 -9 -18 -21 -18
-27 0 -26 -16 2 -23 18 -5 19 -8 8 -21 -15 -19 -50 -21 -50 -3 0 8 -3 8 -9 -2
-8 -12 -14 -13 -35 -3 -22 10 -26 18 -26 52 l0 40 63 0 c38 0 57 4 49 9 -8 4
-36 7 -63 6 l-49 -2 0 37 0 37 57 2 c78 3 81 11 5 11 l-62 0 0 30 c0 17 5 39
12 50 13 21 6 36 -11 25 -7 -4 -11 -62 -11 -161 0 -88 -4 -153 -9 -150 -5 3
-11 -3 -14 -14 -3 -10 0 -21 5 -22 9 -3 13 -94 9 -215 l-1 -43 -127 3 -128 2
-3 43 -3 42 60 0 c34 0 61 -2 61 -4 0 -2 3 -13 6 -23 5 -15 4 -15 -5 -3 -15
21 -25 5 -11 -19 16 -32 30 -25 30 14 l0 35 50 -1 c28 -1 53 1 57 4 7 7 -4 9
-69 9 l-38 0 0 79 0 78 48 4 c26 2 12 4 -33 4 -44 0 -68 -2 -52 -4 27 -4 27
-5 27 -81 l0 -77 -65 0 -65 0 0 78 c0 73 1 77 23 77 21 0 21 1 -4 18 -21 14
-25 21 -18 39 7 19 3 26 -19 40 -15 9 -58 47 -97 84 l-70 69 1 -115 c0 -76 -3
-115 -10 -116 -6 0 0 -5 13 -10 21 -8 23 -14 19 -59 -3 -28 -1 -53 4 -56 4 -3
8 2 8 11 0 12 5 15 16 11 9 -3 38 -6 65 -6 49 0 49 0 49 -32 l0 -33 -57 4
c-36 2 -61 8 -66 17 -17 30 -30 14 -25 -33 3 -27 3 -42 1 -35 -3 6 -9 12 -14
12 -5 0 -4 -11 1 -26 6 -14 10 -27 10 -28 0 -10 -101 -2 -108 8 -5 6 -8 25 -8
41 1 29 3 30 56 36 l55 6 -55 1 -56 2 1 33 c0 31 1 32 55 38 30 3 48 7 40 9
-48 8 -76 8 -88 -2 -11 -9 -12 -4 -8 33 3 24 10 45 16 47 5 2 8 8 4 13 -3 5 5
9 17 9 12 0 20 3 16 6 -5 6 -38 9 -124 12 -37 2 -42 5 -46 30 -3 22 -4 20 -6
-10 -1 -31 -5 -38 -21 -38 -36 0 -21 -16 16 -17 27 0 34 3 30 14 -3 8 -1 11 4
8 6 -3 10 -13 10 -21 0 -8 5 -12 11 -9 6 4 8 14 5 22 -3 8 -1 11 4 8 6 -3 10
-13 10 -22 0 -12 3 -13 14 -4 11 10 15 9 18 -5 7 -36 -4 -254 -13 -254 -5 0
-9 8 -10 18 0 14 -2 13 -9 -4 -8 -19 -15 -20 -163 -18 -86 1 -162 6 -169 10
-7 5 -20 7 -28 6 -8 -1 -96 9 -195 23 -99 14 -204 25 -233 25 -48 -1 -54 1
-70 29 -16 29 -20 31 -80 31 -58 0 -65 -2 -89 -30 -31 -37 -53 -39 -53 -4 0
14 -4 23 -8 20 -5 -3 -8 -15 -7 -28 2 -21 -19 -47 -37 -48 -5 0 -9 51 -9 113
-1 61 -3 104 -6 95 -8 -32 -33 -21 -33 15 l0 34 -66 2 c-57 2 -68 -1 -81 -19
-8 -11 -20 -20 -26 -19 -22 3 -60 -1 -56 -5 3 -3 36 -10 74 -15 39 -6 86 -14
105 -17 l35 -6 -25 -13 c-14 -7 -42 -15 -62 -19 -35 -6 -38 -10 -44 -46 -5
-29 -11 -40 -24 -40 -10 0 -25 -3 -33 -6 -11 -4 -16 2 -19 23 -3 26 -7 28 -43
28 -36 0 -40 -2 -43 -28 -2 -19 -8 -27 -17 -23 -7 2 -21 -4 -30 -14 -11 -12
-37 -21 -74 -25 -57 -7 -143 -29 -173 -45 -10 -6 -18 -6 -20 1 -2 6 -16 1 -31
-11 -15 -12 -28 -20 -28 -18 -1 2 -5 98 -9 213 l-6 210 -3 -200 c-2 -110 -6
-190 -8 -177 -2 12 -9 22 -14 22 -5 0 -9 9 -9 20 0 11 -4 20 -10 20 -5 0 -10
18 -10 40 0 62 -32 49 -35 -14 -3 -92 -8 -138 -12 -118 -7 34 -20 26 -21 -14
-1 -20 -4 -45 -7 -55 -7 -21 5 -25 23 -7 9 9 12 4 12 -25 0 -22 -5 -37 -12
-38 -7 0 -55 -4 -106 -7 l-92 -7 0 30 c0 30 25 330 35 415 4 36 3 40 -5 20 -8
-22 -50 -390 -50 -441 0 -18 -9 -19 -217 -18 -120 1 -306 5 -413 9 -174 6
-182 7 -71 8 68 1 122 4 120 6 -2 2 -93 6 -202 9 -220 6 -246 13 -320 81 -34
31 -37 38 -36 82 l2 49 6 -46 c8 -57 19 -70 89 -111 l56 -31 225 -10 c124 -5
288 -6 363 -3 135 5 139 6 234 47 53 24 102 52 109 63 16 24 46 237 36 248 -4
4 -110 3 -236 -2 -307 -13 -710 -20 -660 -12 32 5 20 8 -55 12 -52 3 -88 8
-80 12 8 3 170 13 360 22 505 24 671 36 709 52 18 8 37 12 41 9 5 -3 10 -2 12
2 1 5 37 19 78 33 41 13 85 35 96 47 29 32 81 32 87 1 4 -20 4 -19 6 5 1 37
18 34 34 -5 16 -36 53 -75 63 -65 4 4 2 13 -5 20 -9 12 2 15 66 21 42 3 106 6
143 6 91 0 103 10 103 91 0 123 -3 164 -12 151 -5 -9 -35 -16 -81 -19 l-73 -4
7 138 c4 77 11 157 16 178 6 28 5 42 -3 47 -14 9 -129 48 -155 53 -9 2 -19 4
-22 5 -3 0 3 5 13 11 23 13 25 91 2 83 -18 -7 -20 12 -2 23 6 4 21 45 33 90
26 104 14 99 -16 -7 -16 -56 -26 -77 -34 -71 -6 5 -28 12 -48 16 -36 7 -38 6
-38 -19 0 -32 -43 -81 -48 -54 -2 11 -9 15 -20 11 -10 -4 -14 -2 -9 3 5 5 18
9 30 9 11 0 22 6 24 13 3 7 -1 10 -11 6 -9 -3 -16 -1 -16 4 0 6 -12 23 -26 37
-19 19 -32 24 -47 19 -20 -6 -20 -8 -4 -13 18 -7 18 -7 0 -22 -26 -23 -245
-73 -498 -114 -121 -20 -293 -50 -382 -66 -161 -30 -219 -34 -217 -14 2 22 67
46 202 73 97 19 138 32 131 39 -17 17 112 77 258 121 142 43 194 65 133 57
-19 -3 -29 -2 -21 1 17 8 59 43 80 67 8 9 21 17 27 17 14 0 26 28 19 41 -4 5
1 6 9 3 11 -4 16 0 16 10 0 9 6 16 13 16 8 0 24 11 37 25 12 13 26 22 30 20 7
-4 67 36 79 52 12 15 69 52 106 67 26 11 35 20 31 31 -3 8 -1 15 5 15 6 0 20
11 31 25 11 14 25 25 33 25 7 0 18 6 24 14 7 8 30 17 52 21 21 4 39 10 39 14
0 9 77 26 157 36 39 5 60 14 80 35 28 28 63 39 63 19z m1430 -239 c0 -5 -7
-10 -15 -10 -8 0 -15 5 -15 10 0 6 7 10 15 10 8 0 15 -4 15 -10z m560 -325
c-10 -12 -10 -15 1 -15 8 0 5 -6 -7 -15 -10 -8 -28 -14 -39 -14 -18 0 -17 1 5
15 14 8 18 13 8 10 -29 -8 -30 7 -1 20 38 17 48 17 33 -1z m-86 -40 c6 -16 -3
-19 -29 -9 -13 5 -14 8 -3 15 19 12 25 11 32 -6z m-274 -85 c0 -5 -2 -10 -4
-10 -3 0 -8 5 -11 10 -3 6 -1 10 4 10 6 0 11 -4 11 -10z m-2260 -29 c0 -4 -14
-22 -30 -40 -30 -31 -47 -41 -34 -20 3 6 -4 4 -17 -4 -13 -8 -107 -27 -209
-41 -199 -30 -657 -102 -703 -112 -27 -6 -28 -4 -22 17 4 13 10 27 14 31 10
11 852 156 944 163 21 1 40 5 44 9 9 8 13 8 13 -3z m120 -36 c0 -9 -9 -15 -22
-14 -17 1 -19 2 -5 6 9 2 17 9 17 14 0 5 2 9 5 9 3 0 5 -7 5 -15z m3340 6 c0
-12 -20 -25 -27 -18 -7 7 6 27 18 27 5 0 9 -4 9 -9z m-3199 -98 c-10 -17 -10
-16 -11 3 0 23 13 41 18 25 2 -6 -1 -18 -7 -28z m144 17 c13 -6 15 -9 5 -9 -8
0 -22 4 -30 9 -18 12 -2 12 25 0z m2960 0 c3 -5 -1 -10 -9 -10 -9 0 -16 5 -16
10 0 6 4 10 9 10 6 0 13 -4 16 -10z m-3010 -60 c-3 -5 -12 -10 -18 -10 -7 0
-6 4 3 10 19 12 23 12 15 0z m71 -3 c1 -1 -2 -24 -6 -52 -5 -27 -9 -98 -9
-156 -1 -102 -2 -107 -26 -123 -13 -9 -27 -16 -31 -16 -3 0 -4 53 -1 118 4
114 22 182 48 182 17 0 9 28 -13 44 l-23 17 30 -6 c16 -4 31 -7 31 -8z m-226
-27 c0 -6 -9 -27 -20 -47 -23 -43 -27 -82 -5 -43 10 18 14 20 15 8 0 -37 -31
-162 -54 -211 -13 -29 -32 -73 -42 -99 -20 -49 -33 -58 -93 -58 -28 0 -32 3
-26 18 4 9 25 70 46 136 22 65 45 128 51 139 6 12 14 46 17 76 6 53 7 56 43
66 20 5 40 13 44 18 11 10 24 9 24 -3z m147 -12 c-3 -8 -6 -5 -6 6 -1 11 2 17
5 13 3 -3 4 -12 1 -19z m2862 -1 c29 -8 56 -19 60 -24 3 -6 16 -13 29 -17 26
-9 28 -21 6 -34 -13 -7 -11 -13 15 -40 33 -32 39 -60 19 -80 -17 -17 -7 -15
46 8 27 11 46 26 46 35 0 9 4 14 9 10 5 -3 12 -1 16 5 3 5 -1 10 -9 10 -23 0
-20 15 4 17 16 1 19 -4 17 -35 l-2 -37 70 -18 c39 -9 94 -16 122 -14 60 3 82
-17 30 -27 -85 -15 -412 -56 -450 -56 l-42 0 -54 148 c-30 81 -57 153 -59 161
-6 16 44 12 127 -12z m-2958 -137 c-18 -164 -22 -181 -50 -192 -21 -7 -23 -6
-18 14 4 12 19 91 34 175 20 108 30 147 37 135 6 -10 5 -60 -3 -132z m3574
110 c-3 -5 -11 -10 -16 -10 -6 0 -7 5 -4 10 3 6 11 10 16 10 6 0 7 -4 4 -10z
m-3758 -22 c-3 -8 -6 -5 -6 6 -1 11 2 17 5 13 3 -3 4 -12 1 -19z m-145 -5 c-6
-2 -10 -9 -7 -14 4 -5 -14 -22 -39 -37 -35 -23 -42 -32 -33 -41 7 -7 8 -11 2
-9 -23 7 -55 -36 -55 -74 0 -21 -4 -38 -10 -38 -5 0 -10 5 -10 10 0 6 -4 10
-10 10 -5 0 -10 -7 -10 -15 0 -9 -6 -12 -17 -9 -16 5 -16 4 -3 -8 8 -7 15 -20
15 -28 0 -8 7 -15 15 -15 8 0 14 8 13 18 -1 13 3 16 15 11 10 -3 27 -9 40 -12
21 -4 22 -8 16 -48 -4 -30 -3 -44 5 -44 6 0 11 -9 11 -20 0 -18 -6 -20 -52
-19 -33 1 -66 9 -86 21 -31 19 -32 21 -15 34 16 12 15 13 -14 14 -17 0 -35 5
-38 11 -4 6 -22 8 -44 5 -20 -3 -56 -8 -81 -11 -52 -7 -144 -22 -180 -31 -19
-4 -32 2 -54 25 -17 17 -25 31 -19 31 16 0 24 28 17 56 -5 20 -12 24 -43 24
-35 0 -38 3 -63 57 -15 32 -25 59 -24 60 7 7 346 56 501 72 166 18 283 24 257
14z m3209 -128 c24 -60 44 -115 45 -121 2 -11 -119 -14 -130 -3 -3 3 2 60 11
127 9 67 20 119 24 114 4 -4 26 -56 50 -117z m-2808 37 c-3 -34 -10 -62 -16
-62 -9 0 -1 105 10 123 10 16 11 1 6 -61z m3517 -3 c0 -40 4 -59 13 -59 8 0 7
-4 -3 -10 -8 -5 -32 -10 -52 -10 -33 0 -38 3 -37 23 0 21 1 21 9 2 8 -19 9
-19 9 3 1 12 10 30 21 39 13 11 18 24 14 39 -3 13 -3 28 1 34 14 23 25 -4 25
-61z m-92 -30 c2 -34 0 -40 -8 -27 -16 27 -21 80 -7 75 7 -2 13 -23 15 -48z
m-59 1 c0 -10 -3 -8 -9 5 -12 27 -12 43 0 25 5 -8 9 -22 9 -30z m-52 -2 c-3
-7 -5 -2 -5 12 0 14 2 19 5 13 2 -7 2 -19 0 -25z m-4787 -65 c-4 -21 -15 -58
-26 -82 l-20 -45 -52 55 c-29 30 -52 59 -52 65 0 10 36 24 120 44 35 9 38 5
30 -37z m5093 30 c-7 -2 -19 -2 -25 0 -7 3 -2 5 12 5 14 0 19 -2 13 -5z
m-3626 -54 c-6 -55 -25 -73 -22 -21 2 38 10 62 22 62 2 0 3 -18 0 -41z m-367
-69 c-12 -17 -19 -37 -16 -45 3 -8 -4 -21 -14 -28 -11 -8 -17 -17 -13 -20 3
-4 1 -7 -5 -7 -16 0 -15 10 5 32 15 17 15 18 0 18 -10 0 -17 5 -17 10 0 6 5
10 10 10 6 0 13 8 17 18 9 25 47 65 51 53 2 -6 -6 -24 -18 -41z m3790 30 c0
-5 -4 -10 -10 -10 -5 0 -10 5 -10 10 0 6 5 10 10 10 6 0 10 -4 10 -10z m-3139
-57 c-4 -37 -6 -41 -9 -18 -2 17 -8 35 -13 41 -5 6 -4 15 3 22 18 18 24 6 19
-45z m2764 47 c-4 -6 7 -10 24 -10 l31 0 0 -62 0 -63 -62 3 c-35 2 -59 0 -55
-4 5 -5 32 -9 60 -9 49 0 52 -2 55 -28 3 -24 0 -27 -28 -27 -25 0 -31 -4 -26
-15 4 -12 -3 -15 -29 -15 -19 0 -35 -4 -35 -10 0 -5 24 -8 53 -7 32 1 52 7 52
14 0 6 3 15 8 19 4 4 7 -10 7 -30 0 -33 -3 -38 -20 -33 -11 3 -22 2 -25 -3 -5
-8 -60 -4 -76 6 -6 3 -9 26 -8 50 l3 44 60 0 c32 0 56 3 52 8 -4 4 -31 7 -59
7 -49 1 -52 2 -55 28 -3 27 -3 27 60 29 l63 2 -62 3 c-62 4 -63 4 -63 33 0 27
2 28 37 25 20 -1 48 1 62 5 20 6 12 8 -32 9 -36 1 -56 5 -52 11 3 6 16 10 28
11 20 1 20 2 -3 9 -24 8 -23 8 8 9 20 1 31 -3 27 -9z m48 3 c-7 -2 -19 -2 -25
0 -7 3 -2 5 12 5 14 0 19 -2 13 -5z m117 -3 l-25 -8 26 -1 c21 -1 28 -7 31
-30 2 -16 1 -37 -3 -47 -7 -17 -8 -17 -8 3 -1 19 -7 21 -51 21 -46 1 -50 -1
-50 -24 0 -23 3 -24 55 -24 l55 0 1 -32 c2 -68 -3 -123 -11 -132 -12 -12 -71
-16 -64 -4 3 4 -2 11 -11 15 -10 3 -21 0 -25 -7 -6 -9 -9 -9 -15 0 -12 19 2
24 60 21 34 -1 55 2 55 8 0 6 -18 11 -39 11 -22 0 -43 5 -47 11 -4 8 0 9 15 4
12 -4 21 -2 21 4 0 6 -11 11 -25 11 -17 0 -25 -6 -25 -17 0 -9 -2 -14 -5 -11
-3 3 -8 53 -11 112 l-6 106 38 1 39 2 -40 7 c-35 6 -32 7 25 8 46 0 58 -2 40
-8z m137 4 c-3 -3 -12 -4 -19 -1 -8 3 -5 6 6 6 11 1 17 -2 13 -5z m-3098 -45
c1 -3 -15 -6 -35 -7 l-36 -1 28 26 c26 24 28 24 35 7 4 -11 8 -22 8 -25z
m2492 6 c1 -18 2 -18 6 -2 3 11 11 16 19 13 7 -3 17 0 20 6 9 14 22 -15 23
-49 1 -20 -4 -23 -39 -23 -38 0 -40 2 -40 30 0 20 -5 30 -15 30 -8 0 -15 -5
-15 -12 0 -6 -3 -9 -6 -5 -12 12 4 33 25 33 14 0 21 -7 22 -21z m91 3 c-7 -7
-12 -8 -12 -2 0 14 12 26 19 19 2 -3 -1 -11 -7 -17z m108 13 c3 0 6 -15 6 -31
2 -27 -1 -30 -26 -28 -24 2 -26 4 -16 21 8 15 8 21 -1 24 -33 12 -1 24 37 14z
m-60 -5 c0 -3 -4 -8 -10 -11 -5 -3 -10 -1 -10 4 0 6 5 11 10 11 6 0 10 -2 10
-4z m-2836 -22 c-6 -3 -9 -17 -7 -32 l4 -27 -15 25 c-16 28 -13 40 12 39 9 0
12 -3 6 -5z m2656 -34 c0 -5 -5 -10 -11 -10 -5 0 -7 5 -4 10 3 6 8 10 11 10 2
0 4 -4 4 -10z m-3330 -20 c14 -10 23 -21 20 -23 -8 -8 -74 -15 -200 -23 -107
-6 -116 -5 -133 14 -18 19 -17 20 100 24 65 2 127 9 138 16 28 16 46 14 75 -8z
m3469 -22 c1 -5 -3 -8 -9 -8 -5 0 -10 12 -9 28 0 24 1 25 9 7 5 -11 9 -23 9
-27z m925 21 c15 -13 -20 -22 -41 -10 -14 8 -15 10 -3 11 13 0 13 1 0 11 -11
8 -9 9 10 4 14 -4 29 -11 34 -16z m-3774 1 c0 -5 -5 -10 -11 -10 -5 0 -7 5 -4
10 3 6 8 10 11 10 2 0 4 -4 4 -10z m3807 -12 c-3 -8 -6 -5 -6 6 -1 11 2 17 5
13 3 -3 4 -12 1 -19z m36 -7 c-4 -16 -1 -19 16 -14 16 4 21 1 22 -13 1 -17 2
-17 6 -1 3 10 14 17 29 17 19 0 24 -5 24 -24 0 -23 -3 -24 -47 -23 -27 1 -51
7 -55 12 -11 14 -10 65 1 65 5 0 7 -9 4 -19z m-1023 -3 c-1 -40 -12 -54 -39
-50 -22 3 -27 8 -24 26 4 17 -1 22 -21 24 -20 1 -25 -4 -29 -26 -4 -25 -4 -25
-6 6 l-1 32 60 0 c41 0 60 -4 60 -12z m138 -17 c-2 -24 -7 -30 -30 -33 -25 -4
-28 -1 -28 23 0 21 -6 29 -22 32 -13 2 1 5 30 6 52 1 52 1 50 -28z m592 -7 c0
-2 -9 -4 -20 -4 -11 0 -20 4 -20 9 0 5 9 7 20 4 11 -3 20 -7 20 -9z m250 7
c-24 -7 -80 -4 -89 5 -2 2 22 4 55 3 42 -1 52 -3 34 -8z m-913 -27 c-3 -3 -12
-4 -19 -1 -8 3 -5 6 6 6 11 1 17 -2 13 -5z m723 -14 c0 -5 -7 -10 -16 -10 -8
0 -12 5 -9 10 3 6 10 10 16 10 5 0 9 -4 9 -10z m-797 -27 c-6 -16 -50 -17 -56
0 -4 7 -6 6 -6 -4 -1 -9 9 -20 22 -24 l22 -7 -25 -8 -25 -8 27 -1 c14 -1 28 4
30 11 3 7 7 6 11 -5 5 -13 1 -17 -18 -17 -14 0 -25 -6 -25 -12 0 -9 -3 -10 -8
-2 -4 6 -19 10 -34 10 -26 -2 -28 1 -28 35 0 19 3 39 7 43 4 3 30 6 59 5 39
-2 51 -5 47 -16z m147 -22 c0 -43 -12 -52 -56 -45 -47 7 -57 14 -21 14 15 0
27 4 27 9 0 5 -10 7 -22 5 -23 -4 -23 -4 0 6 13 5 26 19 29 29 8 29 43 15 43
-18z m777 33 c-3 -3 -12 -4 -19 -1 -8 3 -5 6 6 6 11 1 17 -2 13 -5z m53 -4 c0
-5 -9 -10 -20 -10 -11 0 -20 5 -20 10 0 6 9 10 20 10 11 0 20 -4 20 -10z m150
2 c0 -4 -25 -8 -55 -8 -30 0 -55 3 -55 8 0 4 25 8 55 8 30 0 55 -4 55 -8z
m203 1 c-7 -2 -21 -2 -30 0 -10 3 -4 5 12 5 17 0 24 -2 18 -5z m-1306 -25 c-3
-8 -6 -5 -6 6 -1 11 2 17 5 13 3 -3 4 -12 1 -19z m53 12 c12 -8 11 -10 -7 -10
-13 0 -23 5 -23 10 0 13 11 13 30 0z m655 -20 c3 -6 -1 -7 -9 -4 -18 7 -21 14
-7 14 6 0 13 -4 16 -10z m235 0 c13 -8 13 -10 -2 -10 -9 0 -20 5 -23 10 -8 13
5 13 25 0z m160 1 c0 -6 -22 -11 -50 -11 -65 0 -65 14 0 18 30 2 50 -1 50 -7z
m-1381 -31 c-6 -16 -15 -30 -19 -30 -5 0 -3 14 3 30 6 17 15 30 19 30 4 0 2
-13 -3 -30z m1181 0 c0 -5 -7 -7 -15 -4 -8 4 -15 8 -15 10 0 2 7 4 15 4 8 0
15 -4 15 -10z m50 6 c0 -9 -30 -14 -35 -6 -4 6 3 10 14 10 12 0 21 -2 21 -4z
m144 -12 c10 -25 7 -29 -19 -29 -17 0 -25 6 -25 17 0 9 -8 19 -17 21 -10 3 -2
5 18 6 25 1 39 -4 43 -15z m-1084 2 c0 -3 -4 -8 -10 -11 -5 -3 -10 -1 -10 4 0
6 5 11 10 11 6 0 10 -2 10 -4z m-4471 -187 c-6 -79 -12 -150 -14 -156 -3 -8
-23 -13 -51 -13 -40 0 -45 2 -34 15 17 21 9 26 -39 27 -41 0 -41 1 -41 38 0
48 24 127 46 151 10 11 41 26 70 35 36 10 55 22 59 35 13 42 14 9 4 -132z m96
121 c8 -13 -44 2 -56 16 -9 12 -6 12 20 3 17 -6 33 -14 36 -19z m3512 24 c-3
-3 -12 -4 -19 -1 -8 3 -5 6 6 6 11 1 17 -2 13 -5z m666 -7 c-2 -4 -3 -11 -3
-17 0 -5 -7 -10 -15 -10 -10 0 -15 -10 -15 -30 0 -28 -3 -30 -35 -30 -19 0
-35 -4 -35 -10 0 -5 25 -10 55 -10 30 0 55 5 55 10 0 6 -6 10 -12 10 -10 0
-10 2 -1 8 6 4 13 21 16 37 2 17 5 -28 6 -99 l1 -128 -25 4 c-13 3 -26 0 -29
-6 -2 -6 -5 -3 -5 6 -1 9 -7 18 -13 21 -10 3 -10 7 0 20 12 14 10 15 -15 8
-23 -7 -27 -13 -25 -35 2 -18 -1 -25 -7 -21 -6 3 -11 33 -11 65 0 32 -4 62
-10 65 -6 3 -7 -1 -4 -9 5 -12 0 -16 -20 -16 -14 0 -26 6 -26 13 0 8 -4 7 -11
-3 -9 -13 -10 -13 -8 0 4 40 -1 51 -23 48 -17 -2 -22 -10 -23 -30 0 -14 -3
-30 -7 -34 -13 -12 -9 130 4 157 12 26 13 26 127 25 64 -1 115 -5 114 -9z
m-565 -9 c7 -7 12 -29 12 -50 l0 -37 -57 5 c-32 3 -60 10 -64 15 -3 5 -3 23
-1 40 4 29 7 31 43 27 22 -2 39 0 39 4 0 12 14 10 28 -4z m1809 -10 c-3 -8 -6
-5 -6 6 -1 11 2 17 5 13 3 -3 4 -12 1 -19z m38 12 c3 -5 1 -10 -4 -10 -6 0
-11 5 -11 10 0 6 2 10 4 10 3 0 8 -4 11 -10z m-1129 -21 c2 -8 5 -24 8 -36 4
-21 1 -23 -35 -23 -37 0 -39 2 -39 30 0 24 -4 30 -22 31 l-23 1 23 6 c38 11
85 6 88 -9z m37 -50 c-4 -4 -8 6 -7 24 1 48 7 56 11 18 3 -18 1 -37 -4 -42z
m117 -21 c0 -69 -2 -79 -16 -74 -9 3 -20 6 -25 6 -5 0 -10 12 -10 28 l-2 27
-4 -27 c-3 -21 -10 -28 -26 -27 -17 1 -18 2 -4 6 10 3 17 14 17 29 0 20 5 24
30 24 20 0 30 5 30 15 0 8 -9 15 -20 15 -15 0 -20 7 -20 28 0 21 -2 24 -10 12
-6 -10 -10 -11 -10 -2 0 6 -8 12 -17 13 -17 0 -16 1 0 8 10 4 34 5 53 3 l34
-4 0 -80z m150 83 c3 -1 -2 -6 -10 -11 -11 -7 -11 -10 -2 -10 10 0 13 -18 11
-71 -2 -69 -2 -70 -28 -67 -18 2 -26 9 -27 23 -3 38 -4 40 -14 25 -6 -9 -10
-10 -10 -3 0 6 -10 14 -22 16 -13 2 3 5 35 6 61 1 81 21 22 21 -33 0 -35 2
-35 31 0 26 -3 31 -20 26 -11 -3 -20 -1 -20 3 0 12 74 19 120 11z m29 -33 l-1
-43 -8 35 c-8 32 -6 50 6 50 2 0 4 -19 3 -42z m101 0 c0 -22 -4 -29 -17 -26
-9 2 -20 14 -24 28 -7 24 -7 24 -10 -5 l-2 -30 -4 28 c-3 17 -11 27 -21 28
-14 0 -14 2 2 8 10 4 31 5 47 3 24 -4 29 -9 29 -34z m-3695 -60 c-3 -40 -8
-83 -11 -95 l-4 -23 -378 0 c-435 0 -551 6 -524 26 16 13 16 13 -1 14 -10 0
-16 4 -12 9 3 5 1 12 -5 16 -5 3 -10 22 -10 41 0 30 -3 34 -27 34 -21 1 -24 3
-13 9 8 5 159 14 335 20 176 7 347 13 380 14 33 2 109 4 168 5 l108 2 -6 -72z
m3152 35 c-3 -10 -5 -4 -5 12 0 17 2 24 5 18 2 -7 2 -21 0 -30z m203 9 c0 -4
-10 -9 -22 -9 -18 -2 -20 0 -8 7 18 12 30 13 30 2z m1240 -41 c0 -10 -9 -21
-20 -24 -15 -4 -20 0 -20 14 0 21 16 26 23 7 3 -8 6 -6 6 5 1 23 11 22 11 -2z
m-1290 -37 c0 -48 -14 -43 -17 6 -2 25 1 39 7 35 6 -3 10 -22 10 -41z m290 25
c0 -5 -4 -9 -10 -9 -5 0 -10 7 -10 16 0 8 5 12 10 9 6 -3 10 -10 10 -16z
m-329 -21 c-9 -44 -43 -46 -52 -3 l-7 30 -2 -35 -3 -35 -4 33 c-3 24 -9 32
-24 32 -21 0 -27 -36 -7 -42 7 -3 6 -7 -5 -11 -14 -5 -17 0 -17 28 l0 35 64 0
63 0 -6 -32z m427 0 c-3 -36 -25 -49 -35 -21 -8 22 -23 38 -43 46 -8 3 7 6 33
6 l48 1 -3 -32z m-101 -30 c-3 -7 -5 -2 -5 12 0 14 2 19 5 13 2 -7 2 -19 0
-25z m-97 12 c0 -5 -5 -10 -11 -10 -5 0 -7 5 -4 10 3 6 8 10 11 10 2 0 4 -4 4
-10z m147 -12 c-3 -8 -6 -5 -6 6 -1 11 2 17 5 13 3 -3 4 -12 1 -19z m680 6
c-3 -3 -12 -4 -19 -1 -8 3 -5 6 6 6 11 1 17 -2 13 -5z m273 -1 c-14 -3 -28
-10 -32 -17 -5 -7 -8 -5 -8 7 0 13 8 17 33 16 27 -2 28 -2 7 -6z m-1610 -58
c0 -26 -5 -45 -11 -45 -7 0 -9 11 -6 26 3 16 0 28 -10 31 -20 8 -30 -6 -13
-17 11 -7 8 -10 -15 -11 -16 0 -24 -3 -17 -6 24 -9 12 -19 -23 -19 -33 1 -35
3 -35 38 l0 37 63 4 c34 2 63 4 65 5 1 1 2 -18 2 -43z m-434 4 c-3 -17 -6 -38
-6 -45 0 -10 -11 -13 -42 -10 -24 2 -51 4 -60 5 -14 1 -18 10 -18 41 l0 40 66
0 67 0 -7 -31z m702 22 c6 -1 12 -7 12 -14 0 -9 -10 -12 -32 -9 -32 4 -32 3
-13 -12 18 -14 18 -15 3 -16 -10 0 -18 -8 -18 -17 0 -10 -4 -14 -8 -8 -4 6
-16 10 -27 10 -15 0 -21 8 -23 29 -5 41 5 44 106 37z m162 -32 c0 -33 -3 -40
-16 -35 -9 3 -20 6 -25 6 -17 0 -9 40 9 41 14 1 13 2 -3 7 l-20 5 20 8 c33 13
35 11 35 -32z m147 26 c-2 -5 -18 -10 -35 -10 -33 0 -42 -9 -19 -18 9 -4 9 -8
-1 -15 -8 -5 -13 -13 -13 -18 1 -4 -11 -8 -26 -8 -26 0 -28 3 -24 35 1 18 7
36 11 39 15 10 110 5 107 -5z m32 -2 c-4 -43 2 -72 16 -76 11 -4 10 -4 -2 -3
-11 1 -20 12 -23 31 -6 30 -2 65 7 65 2 0 3 -8 2 -17z m51 8 c0 -5 -9 -11 -20
-14 -11 -3 -20 -1 -20 3 0 5 8 11 18 13 9 3 18 5 20 6 1 0 2 -3 2 -8z m-290
-18 c0 -14 -2 -15 -9 -4 -5 7 -14 10 -20 7 -6 -4 -11 -2 -11 3 0 6 9 11 20 11
12 0 20 -7 20 -17z m340 -13 c0 -23 -4 -30 -20 -30 -16 0 -20 6 -18 30 2 21 7
30 20 30 13 0 18 -8 18 -30z m-393 -37 c-3 -10 -5 -2 -5 17 0 19 2 27 5 18 2
-10 2 -26 0 -35z m259 15 c-1 -13 -7 -21 -12 -19 -5 1 -8 7 -6 12 1 5 -4 9
-10 10 -10 0 10 13 29 18 2 1 1 -9 -1 -21z m-209 -20 c-3 -7 -5 -2 -5 12 0 14
2 19 5 13 2 -7 2 -19 0 -25z m296 19 c3 -8 1 -20 -4 -28 -6 -10 -9 -7 -9 14 0
29 5 35 13 14z m737 3 c0 -5 -5 -10 -11 -10 -5 0 -7 5 -4 10 3 6 8 10 11 10 2
0 4 -4 4 -10z m47 -27 c-3 -10 -5 -4 -5 12 0 17 2 24 5 18 2 -7 2 -21 0 -30z
m-1170 11 c-3 -3 -12 -4 -19 -1 -8 3 -5 6 6 6 11 1 17 -2 13 -5z m-304 -21
c-7 -2 -19 -2 -25 0 -7 3 -2 5 12 5 14 0 19 -2 13 -5z m-614 -15 c9 -8 11 -8
8 -2 -5 8 2 11 18 10 22 -1 25 -6 27 -41 l1 -40 4 38 c4 38 32 54 34 20 1 -17
2 -17 6 0 3 13 15 17 47 17 59 0 68 -20 64 -140 l-3 -95 -33 -3 c-30 -3 -33
-1 -27 16 5 17 2 19 -14 15 -12 -3 -18 -9 -16 -14 8 -12 -59 -22 -87 -13 -22
7 -22 7 -3 15 17 6 16 8 -8 8 -16 1 -26 -3 -23 -8 7 -10 -16 -21 -43 -21 -14
0 -17 6 -13 30 4 26 9 30 34 30 17 0 27 -4 23 -10 -3 -5 -1 -10 4 -10 6 0 11
5 11 10 0 19 31 10 40 -12 8 -21 9 -21 9 7 l1 31 -60 -3 -60 -3 0 35 0 35 54
0 c44 0 55 -4 59 -17 3 -12 5 -10 6 7 1 25 0 26 -59 23 l-60 -3 0 30 c0 33 19
70 35 70 6 0 17 -6 24 -12z m-224 -17 c3 -11 5 -35 3 -55 -1 -19 1 -38 5 -42
4 -4 7 19 7 52 l0 59 46 -2 c65 -3 74 -8 74 -43 0 -29 -10 -36 -47 -31 -7 1
-13 -3 -13 -9 0 -5 14 -10 30 -10 27 0 30 -3 30 -32 l0 -33 -60 3 c-45 3 -60
8 -60 18 0 9 -4 13 -9 10 -5 -3 -8 -22 -7 -41 1 -25 -2 -34 -11 -30 -7 2 -13
0 -13 -4 0 -5 6 -11 13 -14 24 -9 -2 -19 -32 -12 -25 5 -30 11 -27 28 3 12 5
25 5 30 1 4 13 8 29 8 l27 2 -27 4 c-24 4 -28 9 -28 39 0 30 3 34 28 35 l27 2
-27 4 c-16 2 -28 10 -28 18 0 7 -7 20 -15 29 -14 13 -13 16 2 25 30 17 71 13
78 -8z m796 -14 c1 -13 3 -16 5 -7 3 8 16 20 29 27 14 6 23 7 19 2 -3 -5 -1
-9 4 -9 5 0 9 -15 7 -32 -2 -30 -5 -33 -39 -33 -31 0 -36 3 -36 23 0 12 -4 22
-10 22 -5 0 -10 -11 -10 -25 0 -16 -6 -25 -16 -25 -11 0 -14 8 -12 33 2 24 8
33 26 35 13 2 20 8 16 14 -4 7 -2 8 4 4 7 -4 13 -17 13 -29z m175 13 c28 0 36
-23 31 -95 -3 -42 -7 -50 -25 -53 -18 -3 -22 2 -22 22 0 14 -4 25 -9 24 -5 -2
-9 2 -10 7 -1 10 3 12 40 14 23 1 21 26 -1 26 -8 0 -17 11 -21 25 l-7 25 -2
-25 c-2 -16 -4 -19 -7 -9 -4 17 -40 33 -46 21 -2 -4 -3 -35 -2 -69 0 -35 -3
-63 -7 -63 -5 0 -8 35 -6 78 l3 77 28 -3 c17 -2 27 1 28 10 0 10 2 10 6 1 2
-7 15 -13 29 -13z m159 10 c-3 -5 -1 -10 4 -10 6 0 11 5 11 10 0 6 8 10 18 9
10 0 12 -3 5 -6 -8 -3 -13 -23 -13 -48 l0 -43 -37 1 c-32 2 -39 6 -43 27 -7
35 -33 32 -41 -5 l-7 -30 -1 33 c-2 52 17 72 67 72 26 0 41 -4 37 -10z m132
-15 l28 0 3 -102 c2 -80 6 -103 17 -103 7 0 15 6 17 13 3 7 24 12 56 12 41 1
52 -3 55 -17 5 -16 -1 -18 -41 -16 -90 4 -288 -4 -257 -11 29 -7 29 -7 7 -15
-24 -8 -151 -7 -166 2 -5 3 -1 9 10 13 10 4 -33 8 -96 8 -163 2 -160 0 -160
76 l0 62 60 2 60 1 0 -35 c0 -31 -3 -35 -25 -35 -20 0 -25 5 -25 25 0 18 -5
25 -20 25 -15 0 -20 -7 -20 -25 0 -14 -4 -25 -10 -25 -5 0 -10 -4 -10 -10 0
-6 28 -10 63 -11 34 0 57 -3 50 -6 -10 -3 -10 -7 0 -18 8 -9 19 -10 36 -3 13
5 31 8 40 7 46 -4 38 5 -9 11 l-55 6 66 4 c59 5 65 3 61 -12 -3 -12 1 -18 12
-18 13 0 16 11 16 55 l0 55 65 0 65 0 -3 -35 -2 -35 -57 0 c-32 0 -58 -4 -58
-10 0 -5 25 -10 55 -10 30 0 55 -4 55 -10 0 -6 28 -9 68 -8 64 1 65 1 22 8
l-45 7 48 1 c49 2 67 22 20 22 -22 0 -25 2 -13 10 10 6 11 10 3 10 -7 0 -13 7
-13 15 0 8 -5 15 -12 15 -23 0 3 13 29 15 34 1 38 29 6 33 -13 2 -20 8 -17 16
6 15 -53 28 -62 14 -3 -4 -3 -35 0 -68 3 -36 1 -60 -4 -60 -6 0 -10 35 -10 80
0 79 0 80 25 80 14 0 25 6 25 13 0 8 3 7 10 -3 5 -8 21 -14 37 -15z m0 19 c-3
-3 -12 -4 -19 -1 -8 3 -5 6 6 6 11 1 17 -2 13 -5z m593 -11 c0 -14 2 -15 9 -4
17 27 25 -13 22 -109 -1 -52 -5 -97 -7 -100 -3 -3 -68 -5 -145 -5 l-139 -1 0
107 c0 61 4 111 10 114 6 3 10 1 10 -5 0 -6 5 -8 10 -5 6 4 8 11 5 16 -4 5 41
9 109 9 104 0 116 -2 116 -17z m-2820 -3 c0 -12 -79 -10 -86 2 -3 4 15 8 40 8
25 0 46 -4 46 -10z m2521 -10 l29 0 -2 -84 c-2 -53 -7 -82 -13 -78 -5 4 -14 7
-20 7 -5 0 -13 14 -16 30 l-6 30 -5 -35 -5 -35 -1 41 c-2 40 -1 41 28 38 21
-3 30 1 30 11 0 8 -9 15 -20 15 -15 0 -20 7 -21 28 l-1 27 -8 -30 -8 -30 -1
29 c-1 26 -4 28 -31 24 -19 -3 -29 -1 -27 6 2 6 16 10 30 8 17 -2 27 1 28 10
0 10 2 10 6 1 2 -7 18 -13 34 -13z m-976 -22 c0 -18 -3 -38 -8 -45 -4 -6 -1
-14 5 -17 10 -5 10 -7 1 -12 -7 -3 -13 -17 -13 -30 0 -14 4 -23 9 -20 5 4 4
-7 -2 -23 -8 -22 -19 -31 -44 -36 -19 -3 -43 -3 -53 0 -37 12 -20 25 33 26
l52 1 -40 9 c-21 5 -45 7 -52 5 -8 -4 -13 3 -13 19 0 23 4 25 50 25 29 0 50 5
50 11 0 5 -8 9 -17 8 -57 -5 -83 1 -83 21 0 20 17 25 82 20 14 -1 29 4 33 10
5 8 -2 11 -21 10 -16 -1 -44 -2 -61 -1 -32 1 -36 9 -24 49 1 1 27 2 59 2 l58
0 -1 -32z m132 -60 l1 -88 -51 -1 c-44 -1 -48 -2 -25 -9 16 -5 39 -7 53 -5 14
1 25 -3 25 -9 0 -8 -24 -12 -70 -12 -48 -1 -69 2 -67 10 3 6 9 10 14 9 5 -1 7
14 5 34 l-4 35 56 -4 c31 -1 56 0 56 5 0 4 -25 7 -55 7 l-55 0 0 60 0 61 58
-3 57 -3 2 -87z m723 50 c0 -37 -1 -38 -35 -38 -32 0 -35 2 -35 31 0 24 -4 30
-17 27 -25 -5 -29 -45 -6 -50 15 -3 15 -5 -4 -10 -21 -6 -23 -3 -23 32 0 42 4
44 88 46 31 0 32 -1 32 -38z m-2859 8 c-6 -8 -40 -24 -74 -37 -114 -43 -211
-88 -217 -101 -3 -7 -16 -14 -30 -15 -14 0 -41 -8 -60 -17 l-35 -16 55 4 c39
3 48 2 33 -4 -13 -5 -23 -14 -23 -19 0 -13 -73 -8 -77 6 -2 6 -13 8 -24 6 -16
-5 -20 -2 -18 12 3 13 21 22 69 33 36 8 73 15 82 15 12 1 14 5 7 13 -14 17 -2
22 156 74 72 23 134 46 140 51 15 14 28 10 16 -5z m3769 -7 c0 -5 -6 -9 -14
-9 -8 0 -17 -8 -19 -17 -3 -12 -5 -9 -6 8 0 14 2 28 5 32 8 8 34 -3 34 -14z
m-373 -21 c-3 -7 -5 -2 -5 12 0 14 2 19 5 13 2 -7 2 -19 0 -25z m20 10 c-3 -8
-6 -5 -6 6 -1 11 2 17 5 13 3 -3 4 -12 1 -19z m56 -161 c18 -4 18 -4 -5 -6
l-28 -1 2 98 2 97 3 -92 c4 -85 5 -92 26 -96z m342 173 c-3 -5 -12 -7 -20 -3
-21 7 -19 13 6 13 11 0 18 -4 14 -10z m-955 -96 c0 -31 -3 -35 -22 -32 -14 2
-25 12 -29 28 -6 25 -6 25 -11 -5 l-5 -30 -2 33 c-1 24 -5 32 -20 32 -15 0
-19 -5 -15 -24 2 -14 0 -28 -6 -31 -6 -4 -10 8 -10 29 l0 36 60 0 60 0 0 -36z
m40 26 c0 -5 -4 -10 -10 -10 -5 0 -10 5 -10 10 0 6 5 10 10 10 6 0 10 -4 10
-10z m-530 -25 c0 -8 -4 -15 -10 -15 -5 0 -7 7 -4 15 4 8 8 15 10 15 2 0 4 -7
4 -15z m-2750 -15 c-8 -5 -37 -11 -65 -15 -27 -3 -67 -8 -87 -11 -24 -4 -38
-2 -38 5 0 6 3 11 8 11 26 1 123 13 152 19 39 9 52 5 30 -9z m694 -5 c6 -24
10 -25 44 -19 20 4 42 10 47 14 6 4 21 4 35 0 24 -6 23 -7 -10 -14 -48 -10
-110 -37 -105 -46 3 -4 24 -4 47 1 24 4 60 10 81 14 24 4 35 10 31 17 -5 8 -1
9 11 4 10 -4 72 1 137 10 108 15 142 15 125 -2 -6 -6 -158 -34 -351 -65 -67
-11 -70 -10 -87 12 -12 16 -14 27 -8 36 7 8 3 17 -15 28 -31 20 -34 35 -7 35
12 0 21 -9 25 -25z m1244 -32 c2 -17 -4 -22 -32 -27 -52 -10 -86 2 -86 29 0
18 6 24 28 27 49 6 87 -6 90 -29z m-2781 -3 c133 -6 314 -10 403 -10 88 0 160
-4 160 -8 0 -4 -4 -12 -9 -18 -5 -5 -22 -79 -37 -164 -30 -177 -33 -185 -54
-162 -13 14 -12 15 3 9 12 -4 17 -1 17 9 0 12 -7 15 -25 12 -18 -4 -25 -1 -25
11 0 14 -2 14 -10 1 -8 -13 -11 -11 -16 8 -6 22 -24 31 -24 12 0 -5 -17 -9
-37 -9 l-38 2 35 7 35 8 -40 -1 c-22 0 -47 3 -54 8 -9 5 -12 4 -8 -2 7 -11
-41 -28 -51 -18 -3 3 2 5 11 5 10 0 17 5 17 10 0 6 -6 10 -12 10 -9 0 -8 4 2
10 9 6 10 10 3 10 -6 0 -15 -4 -18 -10 -3 -5 -16 -10 -28 -9 -21 0 -21 1 -2 8
22 9 -21 13 -335 35 -117 9 -278 30 -274 37 3 5 17 6 32 4 60 -11 613 -47 701
-47 54 1 99 6 105 12 15 15 36 152 25 166 -6 7 -84 13 -216 17 -214 7 -635 32
-710 43 -24 4 -40 10 -38 14 5 8 117 6 512 -10z m-607 -22 c0 -5 -7 -8 -15 -8
-15 0 -20 21 -8 33 7 7 23 -11 23 -25z m4823 23 c4 -1 7 -6 7 -12 0 -7 -10 -9
-26 -5 -17 5 -23 3 -19 -4 3 -5 -1 -10 -10 -10 -20 0 -55 18 -55 28 0 6 66 8
103 3z m-1918 -21 c28 -7 27 -8 -15 -10 -45 -3 -45 -3 -7 -7 51 -6 47 -23 -7
-23 -35 0 -45 4 -49 19 -3 11 -2 22 1 25 7 8 39 6 77 -4z m2315 -6 c0 -2 -11
-4 -25 -4 -14 0 -25 4 -25 9 0 4 11 6 25 3 14 -2 25 -6 25 -8z m295 6 c4 -6
-6 -10 -22 -9 -25 0 -26 1 -8 9 11 5 21 9 22 9 1 1 5 -3 8 -9z m-4165 -20 c0
-10 -9 -24 -21 -30 -11 -7 -18 -14 -15 -17 3 -3 13 0 22 8 15 12 15 3 9 -111
-4 -81 -12 -133 -21 -147 -17 -27 -74 -57 -155 -83 l-61 -18 6 21 c9 40 45
261 52 324 7 71 6 70 112 72 65 1 72 -1 72 -19z m4063 13 c-7 -2 -21 -2 -30 0
-10 3 -4 5 12 5 17 0 24 -2 18 -5z m-5356 -25 c-3 -8 -6 -5 -6 6 -1 11 2 17 5
13 3 -3 4 -12 1 -19z m-114 -39 c12 -45 -11 -57 -72 -40 -23 6 -36 35 -25 53
3 4 25 8 48 8 36 0 45 -4 49 -21z m2987 11 c0 -5 -4 -10 -10 -10 -5 0 -10 5
-10 10 0 6 5 10 10 10 6 0 10 -4 10 -10z m-2863 -22 c-3 -8 -6 -5 -6 6 -1 11
2 17 5 13 3 -3 4 -12 1 -19z m2708 -46 c0 -64 -8 -83 -27 -64 -11 11 -13 81
-2 115 12 39 29 9 29 -51z m-2776 -1 c1 -28 6 -63 12 -78 7 -19 7 -29 0 -31
-6 -2 -4 -11 6 -20 15 -16 15 -17 -1 -20 -10 -2 -21 -1 -24 3 -10 9 -13 207
-3 201 4 -3 9 -28 10 -55z m2571 30 c0 -5 -32 -17 -72 -26 -103 -23 -275 -72
-296 -84 -16 -10 -15 -10 3 -11 l20 -1 -20 -9 c-26 -11 -37 -12 -31 -2 2 4 1
14 -4 22 -7 11 20 21 138 52 81 20 167 44 192 52 55 17 70 19 70 7z m1288 -8
c54 -7 55 -23 1 -23 -24 0 -38 -4 -34 -10 4 -6 -12 -10 -39 -10 -25 0 -46 5
-46 10 0 6 -4 10 -10 10 -5 0 -10 -7 -10 -16 0 -14 -10 -15 -77 -8 -42 3 -122
8 -177 9 -56 1 -109 5 -118 9 -11 5 -18 4 -18 -3 0 -11 -104 -10 -116 1 -3 3
1 16 8 28 l13 22 290 -6 c160 -4 309 -9 333 -13z m142 -15 c0 -5 -18 -8 -40
-6 -22 1 -40 5 -40 9 0 4 18 7 40 7 22 0 40 -5 40 -10z m274 -8 c13 -13 69
-13 61 0 -4 7 55 10 172 9 98 -1 170 -3 161 -6 -31 -8 -20 -19 15 -15 17 2 43
-2 57 -8 25 -10 25 -10 -3 -5 -16 3 -35 1 -43 -6 -20 -17 -236 -18 -229 -1 2
6 0 12 -5 12 -6 0 -10 -5 -10 -10 0 -7 -26 -8 -72 -4 -40 4 -84 7 -98 8 -14 1
-28 8 -32 16 -5 12 -7 12 -7 -3 -1 -15 -9 -16 -73 -11 -40 3 -86 11 -102 17
-26 10 -27 12 -10 19 25 10 206 0 218 -12z m-4331 -35 c-8 -13 -11 -13 -31 1
-29 20 -28 32 6 36 29 3 39 -11 25 -37z m2697 -38 c0 -55 -13 -87 -36 -87 -12
0 -14 7 -10 28 3 15 8 53 12 85 6 51 8 56 20 40 7 -10 14 -40 14 -66z m1390
79 c0 -3 -4 -8 -10 -11 -5 -3 -10 -1 -10 4 0 6 5 11 10 11 6 0 10 -2 10 -4z
m1646 -11 c-22 -17 -101 -14 -119 4 -8 8 8 11 64 11 67 -1 72 -2 55 -15z
m-199 -1 c-3 -3 -12 -4 -19 -1 -8 3 -5 6 6 6 11 1 17 -2 13 -5z m-1594 -11
c-7 -2 -19 -2 -25 0 -7 3 -2 5 12 5 14 0 19 -2 13 -5z m-1323 -53 c0 -16 -2
-30 -4 -30 -2 0 -6 14 -8 30 -3 17 -1 30 4 30 4 0 8 -13 8 -30z m-841 15 c-8
-7 -162 -35 -167 -31 -4 4 31 15 93 29 28 7 79 8 74 2z m551 -31 c0 -2 -7 -4
-15 -4 -8 0 -15 4 -15 10 0 5 7 7 15 4 8 -4 15 -8 15 -10z m-335 -21 c-23 -6
-55 -32 -55 -45 0 -12 28 -10 32 3 2 7 21 3 53 -12 28 -13 48 -28 47 -33 -2
-5 2 -12 9 -17 7 -4 14 -24 15 -45 3 -33 2 -35 -10 -18 -8 10 -12 24 -9 31 3
7 -2 13 -11 13 -9 0 -17 8 -17 18 -1 16 -2 16 -6 0 -2 -10 -14 -18 -25 -18
-17 0 -18 -3 -9 -14 10 -12 8 -19 -10 -37 -15 -15 -18 -24 -11 -27 16 -5 15
-42 0 -42 -10 0 -10 -2 0 -9 7 -4 14 -23 14 -41 l1 -33 24 29 c12 16 23 34 23
39 0 6 11 24 25 40 l24 30 1 -37 c0 -21 -5 -38 -11 -38 -5 0 -8 -4 -4 -10 9
-14 -6 -60 -19 -57 -6 1 -10 -6 -8 -15 1 -9 -2 -19 -8 -23 -5 -3 -10 -1 -10 4
0 6 -4 11 -10 11 -5 0 -6 -8 -3 -17 6 -16 5 -16 -11 -4 -9 8 -15 20 -12 28 3
7 -1 13 -11 13 -12 0 -14 7 -10 36 4 26 3 34 -6 31 -16 -6 -21 91 -7 127 5 15
6 25 1 22 -13 -8 -31 -89 -31 -141 0 -28 -4 -44 -10 -40 -5 3 -10 2 -10 -2 0
-5 -9 -9 -20 -9 -18 0 -20 7 -20 66 0 102 37 216 77 239 10 6 27 10 38 10 l20
-1 -20 -5z m280 -13 c-4 -6 -11 -7 -17 -4 -6 4 -8 -1 -6 -12 2 -11 10 -19 18
-19 8 0 15 -6 14 -12 -1 -7 -2 -21 -2 -32 -1 -11 -12 -21 -26 -23 -24 -5 -25
-3 -23 46 1 28 7 54 12 58 15 11 37 9 30 -2z m-2292 -7 c-7 -2 -19 -2 -25 0
-7 3 -2 5 12 5 14 0 19 -2 13 -5z m767 -9 c0 -2 -17 -4 -37 -3 -29 0 -33 2
-18 8 18 7 55 4 55 -5z m63 -11 c-7 -2 -21 -2 -30 0 -10 3 -4 5 12 5 17 0 24
-2 18 -5z m617 -3 c0 -5 -2 -10 -4 -10 -3 0 -8 5 -11 10 -3 6 -1 10 4 10 6 0
11 -4 11 -10z m-1377 -30 c3 -13 0 -20 -9 -20 -8 0 -14 9 -14 20 0 11 4 20 9
20 5 0 11 -9 14 -20z m1364 -12 c-3 -8 -6 -5 -6 6 -1 11 2 17 5 13 3 -3 4 -12
1 -19z m-1308 -35 c2 -2 -5 -3 -17 -3 -14 0 -22 6 -22 16 0 14 3 15 18 3 9 -7
19 -15 21 -16z m1706 7 c-16 -4 -43 -8 -60 -8 l-30 0 30 8 c17 4 44 8 60 8
l30 0 -30 -8z m-428 -61 c-8 -65 -17 -75 -73 -84 -25 -3 -44 -9 -41 -11 2 -3
24 -2 47 2 50 8 80 34 80 69 0 14 5 25 12 25 6 0 8 -3 5 -7 -4 -3 -1 -13 6
-21 10 -13 9 -14 -2 -7 -11 6 -13 4 -8 -9 4 -9 3 -15 -2 -12 -5 3 -11 -3 -14
-14 -4 -17 -2 -18 16 -8 l22 11 -20 -23 -20 -23 23 5 c12 4 22 3 22 -2 0 -12
-78 -21 -184 -19 -53 1 -95 3 -93 5 2 2 21 8 43 13 l39 10 -35 -1 c-55 -1 -70
1 -70 13 0 6 6 9 14 6 9 -4 16 4 19 21 6 32 0 42 -14 22 -9 -12 -10 -12 -7 -1
6 20 79 45 98 33 11 -7 22 -5 35 4 10 8 15 14 9 15 -13 1 68 37 85 38 11 1 12
-10 8 -50z m37 19 c-3 -4 -11 -8 -17 -7 -9 0 -9 2 0 5 7 3 9 13 6 22 -4 14 -3
14 5 2 6 -8 8 -18 6 -22z m813 -10 c-3 -8 -6 -5 -6 6 -1 11 2 17 5 13 3 -3 4
-12 1 -19z m73 8 c0 -2 -9 -6 -20 -9 -11 -3 -18 -1 -14 4 5 9 34 13 34 5z
m-2027 -23 c-7 -2 -19 -2 -25 0 -7 3 -2 5 12 5 14 0 19 -2 13 -5z m-173 -30
c0 -26 -1 -26 -15 -7 -19 25 -19 34 0 34 10 0 15 -10 15 -27z m243 20 c-7 -2
-21 -2 -30 0 -10 3 -4 5 12 5 17 0 24 -2 18 -5z m1892 -3 c-3 -5 -10 -10 -16
-10 -5 0 -9 5 -9 10 0 6 7 10 16 10 8 0 12 -4 9 -10z m-1630 -20 c105 -11 225
-25 268 -30 51 -6 86 -6 103 1 15 5 29 7 31 5 3 -3 -17 -11 -44 -19 -51 -15
-88 -13 -398 29 -259 34 -235 43 40 14z m-388 4 c-3 -3 -12 -4 -19 -1 -8 3 -5
6 6 6 11 1 17 -2 13 -5z m40 -10 c-3 -3 -12 -4 -19 -1 -8 3 -5 6 6 6 11 1 17
-2 13 -5z m222 -24 c53 -5 170 -18 261 -29 91 -11 211 -23 268 -27 56 -3 102
-10 102 -15 0 -5 -11 -9 -25 -9 -43 0 -513 50 -563 60 -26 5 -86 14 -134 20
-49 7 -88 14 -88 17 0 3 19 3 42 -1 23 -4 85 -11 137 -16z m1325 -26 c35 -13
12 -33 -70 -63 -47 -17 -91 -28 -97 -24 -7 4 -15 8 -19 8 -17 0 -19 15 -2 15
18 1 18 1 1 14 -16 13 -14 14 24 10 48 -4 122 12 114 26 -3 5 3 11 12 13 10 3
19 5 20 6 1 0 8 -2 17 -5z m-214 -18 c0 -9 -106 -35 -180 -45 -75 -10 -280 -4
-280 8 0 4 69 8 153 8 91 1 176 8 212 16 65 16 95 20 95 13z m410 -106 c0 -12
-42 -51 -48 -45 -4 4 38 54 46 55 1 0 2 -4 2 -10z"/>
<path d="M3525 2861 c-6 -11 9 -23 19 -14 9 9 7 23 -3 23 -6 0 -12 -4 -16 -9z"/>
<path d="M2262 2642 c-22 -3 -24 -8 -20 -52 1 -26 0 -46 -4 -44 -8 5 -22 -81
-15 -93 3 -4 -79 -7 -181 -6 l-187 1 130 -8 c187 -12 256 -20 250 -30 -3 -5 9
-13 27 -18 34 -9 58 -6 58 8 0 5 13 5 30 0 34 -10 72 -2 67 14 -2 6 -20 12
-40 14 -29 3 -38 8 -41 25 -21 115 -37 182 -43 187 -5 3 -19 4 -31 2z"/>
<path d="M3598 2533 c6 -2 12 -11 12 -19 0 -10 5 -12 13 -7 6 4 21 6 32 5 11
-1 5 4 -14 13 -18 8 -38 15 -45 14 -7 0 -6 -2 2 -6z"/>
<path d="M1170 2460 c0 -5 9 -10 19 -10 11 0 23 5 26 10 4 6 -5 10 -19 10 -14
0 -26 -4 -26 -10z"/>
<path d="M2250 2286 c0 -2 18 -15 39 -27 21 -12 45 -32 52 -45 16 -30 22 -25
13 10 -6 26 -33 45 -81 60 -13 4 -23 5 -23 2z"/>
<path d="M2503 2153 c-19 -4 -23 -11 -24 -41 -1 -20 0 -41 1 -47 4 -15 29
-256 29 -282 1 -19 7 -23 35 -23 27 0 42 9 85 55 l51 56 0 109 0 109 -46 36
c-46 34 -70 40 -131 28z"/>
<path d="M2251 2136 c2 -2 15 -9 29 -15 24 -11 24 -11 6 3 -16 13 -49 24 -35
12z"/>
<path d="M2140 2095 c0 -8 5 -15 10 -15 6 0 10 7 10 15 0 8 -4 15 -10 15 -5 0
-10 -7 -10 -15z"/>
<path d="M4310 2028 c0 -5 7 -8 15 -8 8 0 15 -7 15 -15 0 -17 75 -21 100 -5
12 8 11 10 -5 10 -12 0 -25 4 -30 9 -13 11 -95 19 -95 9z"/>
<path d="M4262 1999 c-28 -22 -28 -38 1 -35 28 3 67 24 67 35 0 17 -47 17 -68
0z"/>
<path d="M4430 1930 c0 -5 5 -10 11 -10 5 0 7 5 4 10 -3 6 -8 10 -11 10 -2 0
-4 -4 -4 -10z"/>
<path d="M4308 1903 c7 -3 16 -2 19 1 4 3 -2 6 -13 5 -11 0 -14 -3 -6 -6z"/>
<path d="M2402 1815 c0 -16 2 -22 5 -12 2 9 2 23 0 30 -3 6 -5 -1 -5 -18z"/>
<path d="M3530 1788 c0 -36 4 -35 14 5 4 16 2 27 -4 27 -5 0 -10 -14 -10 -32z"/>
<path d="M2650 1785 l-23 -25 26 0 c22 0 27 5 27 25 0 14 -1 25 -3 25 -2 0
-14 -11 -27 -25z"/>
<path d="M3638 1803 c6 -2 18 -2 25 0 6 3 1 5 -13 5 -14 0 -19 -2 -12 -5z"/>
<path d="M4375 1790 c3 -5 28 -10 56 -10 27 0 49 5 49 10 0 6 -25 10 -56 10
-34 0 -53 -4 -49 -10z"/>
<path d="M3533 1710 c0 -25 2 -35 4 -22 2 12 2 32 0 45 -2 12 -4 2 -4 -23z"/>
<path d="M4351 1724 c0 -11 3 -14 6 -6 3 7 2 16 -1 19 -3 4 -6 -2 -5 -13z"/>
<path d="M2412 1660 c0 -19 2 -27 5 -17 2 9 2 25 0 35 -3 9 -5 1 -5 -18z"/>
<path d="M4298 1673 c6 -2 18 -2 25 0 6 3 1 5 -13 5 -14 0 -19 -2 -12 -5z"/>
<path d="M2305 1630 c-3 -5 -1 -10 4 -10 6 0 11 5 11 10 0 6 -2 10 -4 10 -3 0
-8 -4 -11 -10z"/>
<path d="M3595 1630 c-3 -5 -1 -10 4 -10 6 0 11 5 11 10 0 6 -2 10 -4 10 -3 0
-8 -4 -11 -10z"/>
<path d="M4100 1620 c0 -17 17 -47 23 -40 2 3 -2 16 -10 30 -7 14 -13 18 -13
10z"/>
<path d="M3400 1579 c0 -5 5 -7 10 -4 6 3 10 8 10 11 0 2 -4 4 -10 4 -5 0 -10
-5 -10 -11z"/>
<path d="M3978 1480 c19 -4 46 -4 60 0 21 6 13 8 -33 8 -51 0 -55 -1 -27 -8z"/>
<path d="M4120 1480 l-35 -6 37 -5 c43 -6 86 4 52 12 -10 3 -35 2 -54 -1z"/>
<path d="M3715 1340 c-3 -5 3 -10 15 -10 12 0 18 5 15 10 -3 6 -10 10 -15 10
-5 0 -12 -4 -15 -10z"/>
<path d="M4000 1331 c0 -10 26 -9 36 2 4 4 -2 7 -14 7 -12 0 -22 -4 -22 -9z"/>
<path d="M4090 1330 c0 -5 9 -10 21 -10 11 0 17 5 14 10 -3 6 -13 10 -21 10
-8 0 -14 -4 -14 -10z"/>
<path d="M1560 1226 c0 -31 6 -34 13 -6 3 11 1 23 -4 26 -5 3 -9 -6 -9 -20z"/>
<path d="M858 1173 c12 -2 32 -2 45 0 12 2 2 4 -23 4 -25 0 -35 -2 -22 -4z"/>
<path d="M1656 2185 c-3 -9 -6 -22 -5 -28 0 -7 5 -1 10 12 5 13 8 26 5 28 -2
2 -6 -3 -10 -12z"/>
<path d="M4978 1853 c18 -2 45 -2 60 0 15 2 0 4 -33 4 -33 0 -45 -2 -27 -4z"/>
<path d="M4950 1751 c0 -12 98 -12 106 0 3 5 -20 9 -50 9 -31 0 -56 -4 -56 -9z"/>
<path d="M4960 1720 c0 -5 23 -10 50 -10 28 0 50 5 50 10 0 6 -22 10 -50 10
-27 0 -50 -4 -50 -10z"/>
<path d="M4239 1553 c0 -5 -2 -23 -3 -40 l-4 -33 54 0 c30 0 54 5 54 10 0 6
-15 10 -33 10 -26 0 -33 4 -34 21 -1 12 7 23 20 29 19 7 16 9 -15 9 -21 1 -38
-2 -39 -6z"/>
<path d="M4422 1540 c0 -14 2 -19 5 -12 2 6 2 18 0 25 -3 6 -5 1 -5 -13z"/>
<path d="M4351 1464 c0 -11 3 -14 6 -6 3 7 2 16 -1 19 -3 4 -6 -2 -5 -13z"/>
<path d="M4290 1450 c0 -5 5 -10 11 -10 5 0 7 5 4 10 -3 6 -8 10 -11 10 -2 0
-4 -4 -4 -10z"/>
<path d="M4419 1445 c-1 -8 -2 -21 -3 -27 0 -7 -10 -13 -20 -13 -11 0 -21 -5
-23 -11 -3 -8 15 -11 52 -11 40 0 55 3 55 13 0 8 -6 14 -12 14 -8 0 -9 3 -3 8
6 4 11 15 13 25 2 13 -4 17 -28 17 -19 0 -30 -5 -31 -15z m18 -37 c-3 -8 -6
-5 -6 6 -1 11 2 17 5 13 3 -3 4 -12 1 -19z"/>
<path d="M4571 1534 c0 -11 3 -14 6 -6 3 7 2 16 -1 19 -3 4 -6 -2 -5 -13z"/>
<path d="M3805 1330 c3 -5 12 -7 20 -3 21 7 19 13 -6 13 -11 0 -18 -4 -14 -10z"/>
<path d="M3800 1182 c0 -4 23 -8 50 -9 28 -1 50 2 50 7 0 6 -22 10 -50 10 -27
0 -50 -4 -50 -8z"/>
<path d="M3782 1116 c1 -14 6 -22 10 -20 4 3 9 -5 9 -18 1 -17 3 -18 6 -5 3
13 15 17 49 17 24 0 44 5 44 10 0 6 -25 10 -56 10 -46 0 -55 3 -50 15 3 8 1
15 -4 15 -5 0 -9 -11 -8 -24z"/>
<path d="M3510 1190 c0 -5 9 -10 20 -10 11 0 20 5 20 10 0 6 -9 10 -20 10 -11
0 -20 -4 -20 -10z"/>
<path d="M4530 1130 c0 -15 7 -20 25 -20 18 0 25 5 25 20 0 15 -7 20 -25 20
-18 0 -25 -5 -25 -20z"/>
<path d="M4300 1060 c0 -5 7 -10 16 -10 8 0 12 5 9 10 -3 6 -10 10 -16 10 -5
0 -9 -4 -9 -10z"/>
<path d="M4398 1053 c7 -3 16 -2 19 1 4 3 -2 6 -13 5 -11 0 -14 -3 -6 -6z"/>
<path d="M5190 1259 c0 -5 5 -7 10 -4 6 3 10 8 10 11 0 2 -4 4 -10 4 -5 0 -10
-5 -10 -11z"/>
<path d="M4094 1198 c-3 -4 19 -8 48 -7 57 1 55 5 -5 11 -21 2 -40 0 -43 -4z"/>
<path d="M1128 803 c7 -3 16 -2 19 1 4 3 -2 6 -13 5 -11 0 -14 -3 -6 -6z"/>
<path d="M1190 800 c-9 -6 -10 -10 -3 -10 6 0 15 5 18 10 8 12 4 12 -15 0z"/>
<path d="M1472 950 c-22 -45 -20 -48 15 -20 14 11 20 20 13 20 -7 0 -10 8 -7
20 8 31 1 24 -21 -20z"/>
<path d="M1540 930 l-25 -8 28 -1 c15 -1 27 4 27 9 0 6 -1 10 -2 9 -2 -1 -14
-5 -28 -9z"/>
<path d="M1465 847 c-7 -26 10 -77 25 -77 18 0 28 43 18 72 -12 34 -35 36 -43
5z"/>
<path d="M1530 819 c0 -11 4 -18 10 -14 5 3 7 12 3 20 -7 21 -13 19 -13 -6z"/>
<path d="M4605 910 c3 -5 15 -10 26 -10 10 0 19 5 19 10 0 6 -12 10 -26 10
-14 0 -23 -4 -19 -10z"/>
<path d="M2080 704 c0 -8 5 -12 10 -9 6 3 10 10 10 16 0 5 -4 9 -10 9 -5 0
-10 -7 -10 -16z"/>
<path d="M2062 590 c0 -14 2 -19 5 -12 2 6 2 18 0 25 -3 6 -5 1 -5 -13z"/>
<path d="M2431 724 c0 -11 3 -14 6 -6 3 7 2 16 -1 19 -3 4 -6 -2 -5 -13z"/>
<path d="M1520 670 c-13 -8 -12 -10 3 -10 9 0 17 5 17 10 0 12 -1 12 -20 0z"/>
<path d="M1404 621 c4 -5 0 -11 -6 -14 -7 -2 -10 -8 -6 -12 4 -4 11 -4 17 0
14 8 14 35 0 35 -5 0 -8 -4 -5 -9z"/>
<path d="M1465 600 c3 -5 8 -10 11 -10 2 0 4 5 4 10 0 6 -5 10 -11 10 -5 0 -7
-4 -4 -10z"/>
</g>
</svg>
